<?xml version="1.0" encoding="UTF-8"?>
<!DOCTYPE svg PUBLIC "-//W3C//DTD SVG 1.1//EN" "http://www.w3.org/Graphics/SVG/1.1/DTD/svg11.dtd">
<!-- Creator: CorelDRAW 2019 (64-Bit) -->
<svg xmlns="http://www.w3.org/2000/svg" xml:space="preserve" width="30px" height="27px" version="1.1" style="shape-rendering:geometricPrecision; text-rendering:geometricPrecision; image-rendering:optimizeQuality; fill-rule:evenodd; clip-rule:evenodd"
viewBox="0 0 8.58 7.63"
 xmlns:xlink="http://www.w3.org/1999/xlink">
 <defs>
  <style type="text/css">
   <![CDATA[
    .fil0 {fill:black}
   ]]>
  </style>
 </defs>
 <g id="Capa_x0020_1">
  <metadata id="CorelCorpID_0Corel-Layer"/>
  <g id="_2516315534576">
   <g>
    <path class="fil0" d="M3.13 5.15l4.33 0c0.17,0 0.29,-0.1 0.34,-0.28l0.77 -3.19c0.06,-0.26 -0.05,-0.46 -0.34,-0.46l-6.03 0 -0.14 -0.59c-0.08,-0.37 -0.39,-0.63 -0.81,-0.63l-0.96 0c-0.38,0 -0.4,0.58 0,0.58l0.94 0c0.17,0 0.25,0.06 0.29,0.24l1.15 4.79c0.09,0.39 0.45,0.69 0.85,0.69l3.97 0c0.4,0 0.41,-0.58 0,-0.58l-3.95 0c-0.15,0 -0.29,-0.09 -0.34,-0.28l-0.07 -0.29zm-0.79 -3.35l1.48 0 0.09 1.09 -1.31 0 -0.26 -1.09zm0.4 1.67l1.22 0 0.08 1.1 -1.04 0 -0.26 -1.1zm4.52 1.1l-1.02 0 0.09 -1.1 1.2 0 -0.27 1.1zm0.41 -1.68l-1.29 0 0.08 -1.09 1.48 0 -0.27 1.09zm-3.27 -1.09l1.49 0 -0.09 1.09 -1.31 0 -0.09 -1.09zm0.14 1.67l1.21 0 -0.08 1.1 -1.05 0 -0.08 -1.1z"/>
    <circle class="fil0" cx="3.74" cy="7.11" r="0.52"/>
    <circle class="fil0" cx="6.86" cy="7.11" r="0.52"/>
   </g>
  </g>
 </g>
</svg>
