<?xml version="1.0" encoding="UTF-8"?>
<!DOCTYPE svg PUBLIC "-//W3C//DTD SVG 1.1//EN" "http://www.w3.org/Graphics/SVG/1.1/DTD/svg11.dtd">
<!-- Creator: CorelDRAW 2019 (64-Bit) -->
<svg xmlns="http://www.w3.org/2000/svg" xml:space="preserve" width="384px" height="60px" version="1.1" style="shape-rendering:geometricPrecision; text-rendering:geometricPrecision; image-rendering:optimizeQuality; fill-rule:evenodd; clip-rule:evenodd"
viewBox="0 0 838.96 130.95"
 xmlns:xlink="http://www.w3.org/1999/xlink">
 <defs>
  <style type="text/css">
   <![CDATA[
    .fil0 {fill:#FDBE0D}
    .fil1 {fill:#FEFEFE;fill-rule:nonzero}
   ]]>
  </style>
 </defs>
 <g id="Capa_x0020_1">
  <metadata id="CorelCorpID_0Corel-Layer"/>
  <path class="fil0" d="M66.63 77.77c5.89,-0.55 10.59,-5.24 11.14,-11.14l39.68 0c0.55,3.2 3.34,5.64 6.7,5.64 3.75,0 6.8,-3.04 6.8,-6.8 0,-3.75 -3.05,-6.79 -6.8,-6.79 -3.36,0 -6.15,2.44 -6.7,5.64l-39.68 0c-0.55,-5.9 -5.24,-10.6 -11.14,-11.14l0 -39.68c3.2,-0.55 5.64,-3.34 5.64,-6.7 0,-3.76 -3.04,-6.8 -6.8,-6.8 -3.75,0 -6.8,3.04 -6.8,6.8 0,3.36 2.44,6.15 5.65,6.7l0 39.68c-5.9,0.54 -10.6,5.24 -11.14,11.14l-39.68 0c-0.55,-3.2 -3.34,-5.64 -6.7,-5.64 -3.76,0 -6.8,3.04 -6.8,6.79 0,3.76 3.04,6.8 6.8,6.8 3.36,0 6.15,-2.44 6.7,-5.64l39.68 0c0.54,5.9 5.24,10.59 11.14,11.14l0 39.68c-3.21,0.55 -5.65,3.34 -5.65,6.7 0,3.75 3.05,6.8 6.8,6.8 3.76,0 6.8,-3.05 6.8,-6.8 0,-3.36 -2.44,-6.15 -5.64,-6.7l0 -39.68zm18.03 7c10.65,3.77 21.87,11.09 29.49,18.41 7.62,7.32 11.64,14.62 7.89,18.34 -3.76,3.72 -11.69,-0.63 -19.39,-8.34 -7.7,-7.7 -15.16,-18.75 -17.99,-28.41zm-4.29 4.55c4.93,5.93 8.95,14.15 10.87,21.1 1.92,6.96 1.72,12.65 -1.78,13.52 -3.51,0.87 -6.64,-4.46 -8.47,-11.67 -1.82,-7.21 -2.34,-16.3 -0.62,-22.95zm9.27 -8.98c7.6,-1.31 16.74,-0.68 23.72,1.14 6.98,1.81 11.81,4.82 10.81,8.3 -1,3.47 -7.18,3.52 -14.33,1.49 -7.16,-2.02 -15.29,-6.12 -20.2,-10.93zm-43.36 -34.16c-10.64,-3.77 -21.87,-11.1 -29.49,-18.41 -7.62,-7.32 -11.64,-14.62 -7.88,-18.35 3.76,-3.72 11.69,0.64 19.39,8.34 7.69,7.71 15.16,18.76 17.98,28.42zm4.3 -4.55c-4.93,-5.93 -8.96,-14.15 -10.87,-21.11 -1.92,-6.95 -1.73,-12.64 1.78,-13.51 3.5,-0.87 6.63,4.46 8.46,11.66 1.83,7.21 2.34,16.3 0.63,22.96zm-9.28 8.98c-7.6,1.3 -16.73,0.68 -23.71,-1.14 -6.98,-1.82 -11.81,-4.83 -10.82,-8.3 1,-3.47 7.18,-3.52 14.34,-1.5 7.15,2.03 15.29,6.12 20.19,10.94zm4.98 34.16c-10.64,3.77 -21.87,11.09 -29.49,18.41 -7.62,7.32 -11.64,14.62 -7.88,18.34 3.76,3.72 11.69,-0.63 19.39,-8.34 7.69,-7.7 15.16,-18.75 17.98,-28.41zm4.3 4.55c-4.93,5.93 -8.96,14.15 -10.87,21.1 -1.92,6.96 -1.73,12.65 1.78,13.52 3.5,0.87 6.63,-4.46 8.46,-11.67 1.83,-7.21 2.34,-16.3 0.63,-22.95zm-9.28 -8.98c-7.6,-1.31 -16.73,-0.68 -23.71,1.14 -6.98,1.81 -11.81,4.82 -10.82,8.3 1,3.47 7.18,3.52 14.34,1.49 7.15,-2.02 15.29,-6.12 20.19,-10.93zm43.36 -34.16c10.65,-3.77 21.87,-11.1 29.49,-18.41 7.62,-7.32 11.64,-14.62 7.89,-18.35 -3.76,-3.72 -11.69,0.64 -19.39,8.34 -7.7,7.71 -15.16,18.76 -17.99,28.42zm-4.29 -4.55c4.93,-5.93 8.95,-14.15 10.87,-21.11 1.92,-6.95 1.72,-12.64 -1.78,-13.51 -3.51,-0.87 -6.64,4.46 -8.47,11.66 -1.82,7.21 -2.34,16.3 -0.62,22.96zm9.27 8.98c7.6,1.3 16.74,0.68 23.72,-1.14 6.98,-1.82 11.81,-4.83 10.81,-8.3 -1,-3.47 -7.18,-3.52 -14.33,-1.5 -7.16,2.03 -15.29,6.12 -20.2,10.94zm-24.17 18.08c1.78,0 3.22,-1.44 3.22,-3.22 0,-1.78 -1.44,-3.22 -3.22,-3.22 -1.78,0 -3.22,1.44 -3.22,3.22 0,1.78 1.44,3.22 3.22,3.22zm0 6.65c5.45,0 9.87,-4.42 9.87,-9.87 0,-5.45 -4.42,-9.87 -9.87,-9.87 -5.45,0 -9.87,4.42 -9.87,9.87 0,5.45 4.42,9.87 9.87,9.87z"/>
  <path class="fil1" d="M217.24 88.77l60.76 0 0 23.8 -78.11 0 0 -94.19 17.35 0 0 70.39zm21.65 -7.72l-13.68 0 7.22 -41.78 -4.05 0 0 -20.89 43.67 0 0 20.89 -6.71 0 8.61 41.78 -17.21 0 -1.52 -7.73 -15.07 0 -1.26 7.73zm7.21 -41.78l-2.78 16.08 8.23 0 -3.29 -16.08 -2.16 0zm106.04 -20.89c7,0 12.7,0.59 17.09,1.77 4.39,1.18 7.8,2.96 10.25,5.32 2.45,2.36 4.12,5.34 5,8.92 0.89,3.59 1.33,7.79 1.33,12.6l0 21.27 -17.85 0 0 -11.01c0,-2.03 -0.19,-3.78 -0.57,-5.26 -0.38,-1.47 -1.08,-2.72 -2.09,-3.73 -1.01,-1.02 -2.42,-1.77 -4.24,-2.28 -1.81,-0.51 -4.2,-0.76 -7.15,-0.76 -5.23,0 -8.89,1.03 -10.95,3.1 -2.07,2.07 -3.1,5.04 -3.1,8.93l0 18.98c0,4.06 1.01,6.99 3.03,8.8 2.03,1.82 5.7,2.73 11.02,2.73 5.23,0 8.86,-0.85 10.89,-2.54 2.02,-1.68 3.08,-4.47 3.16,-8.35l17.85 0 0 8.23c0,4.81 -0.57,8.94 -1.71,12.4 -1.14,3.46 -3.02,6.31 -5.63,8.55 -2.62,2.24 -6.08,3.88 -10.38,4.94 -4.31,1.05 -9.62,1.58 -15.95,1.58 -6.42,0 -11.78,-0.55 -16.08,-1.65 -4.31,-1.1 -7.75,-2.76 -10.32,-5 -2.57,-2.23 -4.41,-5.08 -5.51,-8.54 -1.09,-3.46 -1.64,-7.56 -1.64,-12.28l0 -38.11c0,-4.73 0.57,-8.86 1.71,-12.41 1.14,-3.54 2.99,-6.51 5.57,-8.92 2.57,-2.41 6.01,-4.22 10.31,-5.44 4.31,-1.23 9.63,-1.84 15.96,-1.84zm88.05 46.72l0 -46.72 18.87 0 0 94.19 -18.87 0 0 -20.51 -18.35 0 0 20.51 -24.56 0 0 -94.19 24.56 0 0 46.72 18.35 0zm100.72 -15.45l-10.13 0 12.79 62.92 -25.7 0 -2.4 -11.65 -22.41 0 -2.03 11.65 -20.51 0 10.89 -62.92 -6.2 0 0 -31.27 65.7 0 0 31.27zm-43.29 24.31l12.4 0 -4.94 -24.31 -3.16 0 -4.3 24.31zm79.06 -55.58l0 65.83 41.53 0 0 28.36 -63.17 0 0 -94.19 21.64 0zm89.45 35.45c0,-8.36 0.05,-17.85 0.13,-28.49l19.88 0 0 59.76c0,4.81 -0.47,8.94 -1.4,12.4 -0.92,3.46 -2.51,6.31 -4.74,8.55 -2.24,2.24 -5.15,3.88 -8.74,4.94 -3.58,1.05 -8.04,1.58 -13.35,1.58 -5.41,0 -9.9,-0.55 -13.49,-1.65 -3.58,-1.1 -6.47,-2.76 -8.67,-5 -2.19,-2.23 -3.75,-5.08 -4.68,-8.54 -0.93,-3.46 -1.4,-7.56 -1.4,-12.28l0 -66.72 23.55 0 0 64.06c0.09,2.28 0.8,3.99 2.15,5.13 1.35,1.14 2.81,1.71 4.37,1.71 1.56,0 3.02,-0.55 4.37,-1.65 1.35,-1.1 2.02,-2.79 2.02,-5.06l0 -28.74zm60.46 -35.45c5.83,0 10.55,0.4 14.18,1.2 3.63,0.8 6.46,2.01 8.49,3.61 2.02,1.6 3.39,3.61 4.11,6.01 0.72,2.41 1.08,5.22 1.08,8.42l0 25.7c0,3.21 -0.47,5.97 -1.4,8.29 -0.92,2.33 -2.47,4.25 -4.62,5.76 -2.15,1.52 -5.02,2.64 -8.61,3.36 -3.58,0.72 -7.99,1.08 -13.23,1.08 -1.35,0 -2.63,-0.03 -3.86,-0.07 -1.22,-0.04 -2.38,-0.1 -3.48,-0.19l0 31.02 -21.65 0 0 -94.19 28.99 0zm4.94 27.98c0,-2.62 -0.51,-4.6 -1.52,-5.95 -1.01,-1.35 -3.2,-2.03 -6.58,-2.03 -1.94,0 -3.33,0.21 -4.18,0.64l0 25.32c0.93,0.33 2.32,0.5 4.18,0.5 3.04,0 5.15,-0.61 6.33,-1.84 1.18,-1.22 1.77,-3.18 1.77,-5.88l0 -10.76zm104.77 3.29l-10.13 0 12.79 62.92 -25.7 0 -2.4 -11.65 -22.41 0 -2.03 11.65 -20.51 0 10.89 -62.92 -6.2 0 0 -31.27 65.7 0 0 31.27zm-43.29 24.31l12.4 0 -4.94 -24.31 -3.16 0 -4.3 24.31z"/>
 </g>
</svg>
